# Blender v2.93.4 OBJ File: 'mazeWalls.blend'
# www.blender.org
mtllib BeginningMaze.mtl
o Cube.002_Cube.003
v -12.000000 -4.000000 -4.000000
v -12.000000 4.000000 -4.000000
v -12.000000 -4.000000 -12.000000
v -12.000000 4.000000 -12.000000
v -4.000000 -4.000000 -4.000000
v -4.000000 4.000000 -4.000000
v -4.000000 -4.000000 -12.000000
v -4.000000 4.000000 -12.000000
v -12.000000 -4.000000 12.000000
v -12.000000 4.000000 12.000000
v -12.000000 -4.000000 4.000000
v -12.000000 4.000000 4.000000
v -4.000000 -4.000000 12.000000
v -4.000000 4.000000 12.000000
v -4.000000 -4.000000 4.000000
v -4.000000 4.000000 4.000000
v 4.000000 -4.000000 12.000000
v 4.000000 4.000000 12.000000
v 4.000000 -4.000000 4.000000
v 4.000000 4.000000 4.000000
v 12.000000 -4.000000 12.000000
v 12.000000 4.000000 12.000000
v 12.000000 -4.000000 4.000000
v 12.000000 4.000000 4.000000
v 4.000000 -4.000000 -4.000000
v 4.000000 4.000000 -4.000000
v 4.000000 -4.000000 -12.000000
v 4.000000 4.000000 -12.000000
v 12.000000 -4.000000 -4.000000
v 12.000000 4.000000 -4.000000
v 12.000000 -4.000000 -12.000000
v 12.000000 4.000000 -12.000000
v 10.000000 4.000000 4.000000
v 10.000000 -4.000000 4.000000
v 10.000000 4.000000 -4.000000
v 10.000000 -4.000000 -4.000000
vt 0.666667 0.166667
vt 0.833333 0.000000
vt 0.833333 0.166667
vt 0.166667 1.000000
vt 0.000000 0.833333
vt 0.166667 0.833333
vt 0.333333 0.500000
vt 0.500000 0.333333
vt 0.500000 0.500000
vt 0.166667 0.333333
vt 0.000000 0.166667
vt 0.166667 0.166667
vt 0.166667 0.000000
vt 0.000000 0.000000
vt 0.333333 0.000000
vt 0.166667 0.166667
vt 0.166667 0.000000
vt 0.666667 0.500000
vt 0.833333 0.333333
vt 0.833333 0.500000
vt 0.333333 0.333333
vt 0.166667 0.166667
vt 0.333333 0.166667
vt 0.333333 0.166667
vt 0.500000 0.000000
vt 0.500000 0.166667
vt 0.500000 0.833333
vt 0.333333 0.666667
vt 0.500000 0.666667
vt 0.166667 0.333333
vt 0.000000 0.500000
vt 0.000000 0.333333
vt 0.166667 0.500000
vt 0.166667 0.333333
vt 0.666667 0.666667
vt 0.500000 0.500000
vt 0.666667 0.500000
vt 0.166667 0.666667
vt 0.000000 0.500000
vt 0.166667 0.500000
vt 0.500000 0.166667
vt 0.666667 0.000000
vt 0.666667 0.166667
vt 0.833333 0.833333
vt 0.666667 0.666667
vt 0.833333 0.666667
vt 1.000000 0.166667
vt 0.833333 0.000000
vt 1.000000 0.000000
vt 0.000000 0.833333
vt 0.000000 0.666667
vt 0.666667 0.833333
vt 0.500000 0.666667
vt 0.666667 0.666667
vt 0.833333 0.666667
vt 0.666667 0.500000
vt 0.833333 0.500000
vt 0.500000 0.500000
vt 0.666667 0.333333
vt 0.333333 0.833333
vt 0.166667 0.666667
vt 0.333333 0.666667
vt 0.333333 0.500000
vt 0.166667 0.500000
vt 0.333333 1.000000
vt 0.166667 0.833333
vt 0.333333 0.833333
vt 0.666667 0.000000
vt 0.000000 1.000000
vt 0.333333 0.333333
vt 0.000000 0.333333
vt 0.333333 0.166667
vt 0.666667 0.333333
vt 0.333333 0.000000
vt 0.333333 0.833333
vt 0.166667 0.500000
vt 0.333333 0.500000
vt 0.500000 0.666667
vt 0.500000 0.000000
vt 0.666667 0.833333
vt 0.833333 0.166667
vt 0.166667 0.833333
vt 0.500000 0.833333
vt 0.666667 0.666667
vt 0.500000 0.333333
vt 0.166667 0.833333
vt 0.166667 1.000000
vt 0.291667 0.666667
vt 0.500000 0.666667
vt 0.333333 0.666667
vt 0.333333 0.500000
vt 0.041667 0.500000
vt 0.041667 0.666667
vt 0.291667 0.833333
vt 0.333333 0.833333
vt 0.000000 0.500000
vt 0.500000 0.500000
vt 0.291667 0.833333
vt 0.041667 0.500000
vn -1.0000 0.0000 0.0000
vn 0.0000 0.0000 -1.0000
vn 1.0000 0.0000 0.0000
vn 0.0000 0.0000 1.0000
vn 0.0000 -1.0000 0.0000
vn 0.0000 1.0000 0.0000
usemtl None
s off
f 2/1/1 3/2/1 1/3/1
f 4/4/2 7/5/2 3/6/2
f 8/7/3 5/8/3 7/9/3
f 6/10/4 1/11/4 5/12/4
f 7/13/5 1/11/5 3/14/5
f 4/15/6 6/16/6 8/17/6
f 10/18/1 11/19/1 9/20/1
f 12/21/2 15/22/2 11/23/2
f 16/24/3 13/25/3 15/26/3
f 14/27/4 9/28/4 13/29/4
f 15/30/5 9/31/5 11/32/5
f 12/21/6 14/33/6 16/34/6
f 18/35/1 19/36/1 17/37/1
f 20/38/2 23/39/2 19/40/2
f 24/41/3 21/42/3 23/43/3
f 22/44/4 17/45/4 21/46/4
f 23/47/5 17/48/5 19/49/5
f 20/38/6 22/50/6 24/51/6
f 26/52/1 27/53/1 25/54/1
f 28/55/2 31/56/2 27/57/2
f 32/58/3 29/59/3 31/56/3
f 30/60/4 25/61/4 29/62/4
f 31/63/5 25/61/5 27/64/5
f 28/65/6 30/66/6 32/67/6
f 2/1/1 4/68/1 3/2/1
f 4/4/2 8/69/2 7/5/2
f 8/7/3 6/70/3 5/8/3
f 6/10/4 2/71/4 1/11/4
f 7/13/5 5/12/5 1/11/5
f 4/15/6 2/72/6 6/16/6
f 10/18/1 12/73/1 11/19/1
f 12/21/2 16/34/2 15/22/2
f 16/24/3 14/74/3 13/25/3
f 14/27/4 10/75/4 9/28/4
f 15/30/5 13/76/5 9/31/5
f 12/21/6 10/77/6 14/33/6
f 18/35/1 20/78/1 19/36/1
f 20/38/2 24/51/2 23/39/2
f 24/41/3 22/79/3 21/42/3
f 22/44/4 18/80/4 17/45/4
f 23/47/5 21/81/5 17/48/5
f 20/38/6 18/82/6 22/50/6
f 26/52/1 28/83/1 27/53/1
f 28/55/2 32/84/2 31/56/2
f 32/58/3 30/85/3 29/59/3
f 30/60/4 26/86/4 25/61/4
f 31/63/5 29/62/5 25/61/5
f 28/65/6 26/87/6 30/66/6
f 2/72/6 12/21/6 16/34/6
f 5/12/5 15/30/5 11/32/5
f 1/3/1 11/19/1 12/73/1
f 6/70/3 16/24/3 15/26/3
f 30/60/4 36/88/4 29/62/4
f 33/89/1 35/90/1 36/91/1
f 35/92/6 33/93/6 24/51/6
f 23/39/2 33/93/2 24/51/2
f 34/94/5 36/88/5 29/62/5
f 23/43/3 29/59/3 30/85/3
f 24/41/3 23/43/3 30/85/3
f 23/95/5 34/94/5 29/62/5
f 30/96/6 35/92/6 24/51/6
f 34/97/1 33/89/1 36/91/1
f 1/11/5 5/12/5 11/32/5
f 2/1/1 1/3/1 12/73/1
f 6/16/6 2/72/6 16/34/6
f 5/8/3 6/70/3 15/26/3
f 30/60/4 35/98/4 36/88/4
f 23/39/2 34/99/2 33/93/2
